solid OpenSCAD_Model
  facet normal -1 0 0
    outer loop
      vertex -0.5 -0.5 -0.5
      vertex -0.5 -0.5 0.5
      vertex -0.5 0.5 -0.5
    endloop
  endfacet
  facet normal -1 0 0
    outer loop
      vertex -0.5 0.5 -0.5
      vertex -0.5 -0.5 0.5
      vertex -0.5 0.5 0.5
    endloop
  endfacet
  facet normal 0 -1 0
    outer loop
      vertex -0.5 -0.5 0.5
      vertex -0.5 -0.5 -0.5
      vertex 0.5 -0.5 -0.5
    endloop
  endfacet
  facet normal 0 -1 0
    outer loop
      vertex 0.5 -0.5 0.5
      vertex -0.5 -0.5 0.5
      vertex 0.5 -0.5 -0.5
    endloop
  endfacet
  facet normal 0 0 -1
    outer loop
      vertex -0.5 -0.5 -0.5
      vertex -0.5 0.5 -0.5
      vertex 0.5 -0.5 -0.5
    endloop
  endfacet
  facet normal 0 0 -1
    outer loop
      vertex 0.5 -0.5 -0.5
      vertex -0.5 0.5 -0.5
      vertex 0.5 0.5 -0.5
    endloop
  endfacet
  facet normal 0 1 0
    outer loop
      vertex -0.5 0.5 -0.5
      vertex -0.5 0.5 0.5
      vertex 0.5 0.5 -0.5
    endloop
  endfacet
  facet normal 0 1 0
    outer loop
      vertex 0.5 0.5 -0.5
      vertex -0.5 0.5 0.5
      vertex 0.5 0.5 0.5
    endloop
  endfacet
  facet normal 0 0 1
    outer loop
      vertex -0.5 0.5 0.5
      vertex -0.5 -0.5 0.5
      vertex 0.5 -0.5 0.5
    endloop
  endfacet
  facet normal 0 0 1
    outer loop
      vertex 0.5 0.5 0.5
      vertex -0.5 0.5 0.5
      vertex 0.5 -0.5 0.5
    endloop
  endfacet
  facet normal 1 0 0
    outer loop
      vertex 0.5 -0.5 0.5
      vertex 0.5 -0.5 -0.5
      vertex 0.5 0.5 -0.5
    endloop
  endfacet
  facet normal 1 0 0
    outer loop
      vertex 0.5 0.5 0.5
      vertex 0.5 -0.5 0.5
      vertex 0.5 0.5 -0.5
    endloop
  endfacet
  facet normal -1 0 0
    outer loop
      vertex 2 0 0
      vertex 2 0 1
      vertex 2 1 0
    endloop
  endfacet
  facet normal -1 0 0
    outer loop
      vertex 2 1 0
      vertex 2 0 1
      vertex 2 1 1
    endloop
  endfacet
  facet normal 0 -1 0
    outer loop
      vertex 2 0 1
      vertex 2 0 0
      vertex 3 0 0
    endloop
  endfacet
  facet normal 0 -1 0
    outer loop
      vertex 3 0 1
      vertex 2 0 1
      vertex 3 0 0
    endloop
  endfacet
  facet normal 0 0 -1
    outer loop
      vertex 2 0 0
      vertex 2 1 0
      vertex 3 0 0
    endloop
  endfacet
  facet normal 0 0 -1
    outer loop
      vertex 3 0 0
      vertex 2 1 0
      vertex 3 1 0
    endloop
  endfacet
  facet normal 0 1 0
    outer loop
      vertex 2 1 0
      vertex 2 1 1
      vertex 3 1 0
    endloop
  endfacet
  facet normal 0 1 0
    outer loop
      vertex 3 1 0
      vertex 2 1 1
      vertex 3 1 1
    endloop
  endfacet
  facet normal 0 0 1
    outer loop
      vertex 2 1 1
      vertex 2 0 1
      vertex 3 0 1
    endloop
  endfacet
  facet normal 0 0 1
    outer loop
      vertex 3 1 1
      vertex 2 1 1
      vertex 3 0 1
    endloop
  endfacet
  facet normal 1 0 0
    outer loop
      vertex 3 0 1
      vertex 3 0 0
      vertex 3 1 0
    endloop
  endfacet
  facet normal 1 0 0
    outer loop
      vertex 3 1 1
      vertex 3 0 1
      vertex 3 1 0
    endloop
  endfacet
  facet normal -1 0 0
    outer loop
      vertex 4 0 0
      vertex 4 0 0.408248
      vertex 4 0.408248 0
    endloop
  endfacet
  facet normal -1 0 0
    outer loop
      vertex 4 0.408248 0
      vertex 4 0 0.408248
      vertex 4 0.408248 0.408248
    endloop
  endfacet
  facet normal 0 -1 0
    outer loop
      vertex 4 0 0.408248
      vertex 4 0 0
      vertex 4.40825 0 0
    endloop
  endfacet
  facet normal 0 -1 0
    outer loop
      vertex 4.40825 0 0.408248
      vertex 4 0 0.408248
      vertex 4.40825 0 0
    endloop
  endfacet
  facet normal 0 0 -1
    outer loop
      vertex 4 0 0
      vertex 4 0.408248 0
      vertex 4.40825 0 0
    endloop
  endfacet
  facet normal 0 0 -1
    outer loop
      vertex 4.40825 0 0
      vertex 4 0.408248 0
      vertex 4.40825 0.408248 0
    endloop
  endfacet
  facet normal 0 1 0
    outer loop
      vertex 4 0.408248 0
      vertex 4 0.408248 0.408248
      vertex 4.40825 0.408248 0
    endloop
  endfacet
  facet normal 0 1 0
    outer loop
      vertex 4.40825 0.408248 0
      vertex 4 0.408248 0.408248
      vertex 4.40825 0.408248 0.408248
    endloop
  endfacet
  facet normal 0 0 1
    outer loop
      vertex 4 0.408248 0.408248
      vertex 4 0 0.408248
      vertex 4.40825 0 0.408248
    endloop
  endfacet
  facet normal 0 0 1
    outer loop
      vertex 4.40825 0.408248 0.408248
      vertex 4 0.408248 0.408248
      vertex 4.40825 0 0.408248
    endloop
  endfacet
  facet normal 1 0 0
    outer loop
      vertex 4.40825 0 0.408248
      vertex 4.40825 0 0
      vertex 4.40825 0.408248 0
    endloop
  endfacet
  facet normal 1 0 0
    outer loop
      vertex 4.40825 0.408248 0.408248
      vertex 4.40825 0 0.408248
      vertex 4.40825 0.408248 0
    endloop
  endfacet
endsolid OpenSCAD_Model
